<svg xmlns="http://www.w3.org/2000/svg" width="100" height="70"><path fill="#9B9B9B" fill-rule="evenodd" d="M90.68 35.9c.95-.12 1.78.62 1.78 1.57v2.95c0 1.04-.74 1.93-1.77 2.1L75.06 45.2a1.04 1.04 0 0 1-1.15-1.38l1.6-4.33a2.98 2.98 0 0 1 2.4-1.92l12.77-1.66zM24.35 45.2L8.71 42.52a2.13 2.13 0 0 1-1.77-2.1v-2.95c0-.95.84-1.69 1.78-1.57l12.77 1.66c1.1.14 2.02.88 2.4 1.92l1.6 4.33c.28.75-.35 1.51-1.14 1.38zm-8.23-22.2A444 444 0 0 1 25.75 6.6l.06-.09a5.88 5.88 0 0 1 5.05-2.92h37.69a5.88 5.88 0 0 1 5.05 2.92l.06.1A442.31 442.31 0 0 1 83.29 23c.4.71-.06 1.62-.88 1.62H17c-.82 0-1.29-.9-.88-1.62zm80.6-5.65h-7.46a2.7 2.7 0 0 0-2.7 2.7v1.46a442.27 442.27 0 0 0-9.85-16.8A9.47 9.47 0 0 0 68.54 0H30.86a9.47 9.47 0 0 0-8.16 4.7c-2.5 4.04-5.72 9.43-9.86 16.8v-1.47a2.7 2.7 0 0 0-2.7-2.69H2.7A2.7 2.7 0 0 0 0 20.04v3.3a2.7 2.7 0 0 0 2.7 2.7h7.45c.06 0 .11-.02.17-.03a926.1 926.1 0 0 0-4.25 7.78c-.8 1.41-1.02 5.28-1.02 7.96l.91 19.4c0 1.02.38 1.95.98 2.66v4.44c0 .75.61 1.36 1.36 1.36h14c.75 0 1.36-.61 1.36-1.36v-3.02h52.09v3.02c0 .75.6 1.36 1.36 1.36h14c.75 0 1.35-.61 1.35-1.36V63.8c.6-.71.99-1.64.99-2.65l.91-19.4c0-2.7-.23-6.56-1.02-7.97-1.51-2.79-2.92-5.37-4.26-7.78l.18.02h7.46a2.7 2.7 0 0 0 2.69-2.7v-3.3a2.7 2.7 0 0 0-2.7-2.69z"/></svg>