<svg xmlns="http://www.w3.org/2000/svg" width="156" height="156"><defs><linearGradient id="a" x1="50%" x2="50%" y1="100%" y2="0%"><stop offset="0%" stop-color="#E20074"/><stop offset="26%" stop-color="#E50679"/><stop offset="60%" stop-color="#EF1685"/><stop offset="98%" stop-color="#FE319B"/><stop offset="100%" stop-color="#FF339C"/></linearGradient><linearGradient id="b" x1="0%" y1="50%" y2="50%"><stop offset="0%" stop-color="#F39ECA"/><stop offset="100%" stop-color="#FAD9EB"/></linearGradient></defs><g fill="none" fill-rule="evenodd"><rect width="156" height="156" fill="url(#a)" fill-rule="nonzero" rx="4.5"/><path fill="#FEF4F9" fill-rule="nonzero" d="M126.18 99.5h-6.84c-.73-1.9 0 .16-5.77-14.07a21.45 21.45 0 0 0-16.62-13c-2.18-.33-.52-.23-34.76-.23a21.45 21.45 0 0 0-19.84 13.26c-5.87 14.22-6.26 12.17-7.07 14.07H28.6a2.6 2.6 0 0 0-2.6 2.6v.23l.39 2.76a2.94 2.94 0 0 0 2.91 2.26h4.5v19.42h88.4v-19.47h3.35a2.76 2.76 0 0 0 2.76-2.27l.39-2.8a2.6 2.6 0 0 0-2.44-2.76h-.08z"/><circle cx="106.678" cy="110.056" r="6.344" fill="#F39ECA" fill-rule="nonzero"/><circle cx="49.296" cy="110.056" r="6.344" fill="#F39ECA" fill-rule="nonzero"/><rect width="31.096" height="7.618" x="62.504" y="113.982" fill="#EC57A2" fill-rule="nonzero" rx=".25"/><path fill="#EC57A2" fill-rule="nonzero" d="M106.6 132v7.8a2.6 2.6 0 0 0 2.6 2.6h10.4a2.6 2.6 0 0 0 2.6-2.6V132h-15.6zM33.8 132v7.8a2.6 2.6 0 0 0 2.6 2.6h10.4a2.6 2.6 0 0 0 2.6-2.6V132H33.8z"/><path fill="#F39ECA" fill-rule="nonzero" d="M33.85 126.77h88.35V132H33.85z"/><path fill="#F49AC7" fill-rule="nonzero" d="M108.16 87.8A16.15 16.15 0 0 0 93.6 77.4H62.2a16.15 16.15 0 0 0-14.44 10.4l-4.13 10.4h68.64l-4.11-10.4z"/><path fill="url(#b)" fill-rule="nonzero" d="M62.2 77.4a16.15 16.15 0 0 0-14.44 10.4l-4.13 10.4H70.2L91 77.4H62.2z" opacity=".5"/><path d="M46.02 19.47h63.93v63.94H46.02z"/><path fill="#FEF4F9" fill-rule="nonzero" d="M91 12.81a22.52 22.52 0 0 0-31.4 31.36L78 68.67l18.46-24.53A22.49 22.49 0 0 0 91 12.81zm-.78 28.6v-2.86a5.2 5.2 0 0 0-5.2-5.2h-14.1a5.2 5.2 0 0 0-5.2 5.2v2.86a16.33 16.33 0 1 1 24.47 0h.03z"/><path fill="#FEF4F9" fill-rule="nonzero" d="M78 16.09a5.72 5.72 0 0 0-5.64 5.64v4.24a5.65 5.65 0 1 0 11.3 0v-4.24A5.75 5.75 0 0 0 78 16.1z"/></g></svg>