<svg xmlns="http://www.w3.org/2000/svg" width="32" height="32"><defs><linearGradient id="a" x1="50.002%" x2="50.002%" y1="100%" y2="0%"><stop offset="0%" stop-color="#D52B1E"/><stop offset="100%" stop-color="#F05C51"/></linearGradient></defs><g fill="none" fill-rule="evenodd"><path fill="url(#a)" d="M15.75 0A15.72 15.72 0 0 0 0 15.75C0 24.47 7.03 31.5 15.75 31.5c8.72 0 15.75-7.03 15.75-15.75C31.5 7.03 24.47 0 15.75 0z" transform="translate(.25 .25)"/><path fill="#FFF" d="M17.18 16l6.19-6.19a.82.82 0 0 0 0-1.18.82.82 0 0 0-1.18 0L16 14.76 9.87 8.63a.82.82 0 0 0-1.18 0 .82.82 0 0 0 0 1.18L14.82 16l-6.19 6.13a.82.82 0 0 0 .62 1.4c.22 0 .45-.05.62-.22L16 17.18l6.13 6.13c.17.17.4.23.62.23.23 0 .45-.06.62-.23a.82.82 0 0 0 0-1.18L17.18 16z" opacity=".9"/></g></svg>