<svg xmlns="http://www.w3.org/2000/svg" width="22" height="22"><defs><linearGradient id="a" x1="-.011%" x2="99.981%" y1="50.02%" y2="50.02%"><stop offset="0%" stop-color="#FFD329"/><stop offset="100%" stop-color="#FFDE5F"/></linearGradient></defs><path fill="url(#a)" fill-rule="nonzero" d="M22.98 8.38a.56.56 0 0 0-.53-.38h-7.57L12.54.87a.56.56 0 0 0-1.07 0L9.12 8H1.55a.56.56 0 0 0-.33 1.02l6.13 4.54L5 20.75a.56.56 0 0 0 .86.63L12 16.94l6.13 4.45a.56.56 0 0 0 .86-.64l-2.34-7.19 6.13-4.54c.2-.15.28-.4.2-.64z" transform="translate(-1)"/></svg>