<svg xmlns="http://www.w3.org/2000/svg" width="32" height="32"><defs><linearGradient id="a" x1="50%" x2="50%" y1="100%" y2="0%"><stop offset="0%" stop-color="#5B8F22"/><stop offset="100%" stop-color="#7BA84A"/></linearGradient></defs><g fill="none" fill-rule="evenodd"><path fill="url(#a)" d="M15.75 0A15.72 15.72 0 0 0 0 15.75C0 24.47 7.03 31.5 15.75 31.5c8.72 0 15.75-7.03 15.75-15.75C31.5 7.03 24.47 0 15.75 0z" transform="translate(.25 .25)"/><path fill="#FFF" d="M13.19 22.47a.85.85 0 0 1-.62-.23L7.5 17.18a.82.82 0 0 1 0-1.18.82.82 0 0 1 1.18 0l4.44 4.44L23.76 9.81a.82.82 0 0 1 1.18 0c.34.34.34.85 0 1.18L13.7 22.24c-.05.17-.28.23-.5.23z" opacity=".9"/></g></svg>